<?xml version="1.0" encoding="UTF-8"?>
<!DOCTYPE svg PUBLIC "-//W3C//DTD SVG 1.1//EN" "http://www.w3.org/Graphics/SVG/1.1/DTD/svg11.dtd">
<!-- Creator: CorelDRAW -->
<svg xmlns="http://www.w3.org/2000/svg" xml:space="preserve" width="0.645835in" height="0.645835in" version="1.1" style="shape-rendering:geometricPrecision; text-rendering:geometricPrecision; image-rendering:optimizeQuality; fill-rule:evenodd; clip-rule:evenodd"
viewBox="0 0 640.27 640.27"
 xmlns:xlink="http://www.w3.org/1999/xlink"
 xmlns:xodm="http://www.corel.com/coreldraw/odm/2003">
 <defs>
  <style type="text/css">
   <![CDATA[
    .fil0 {fill:#FEFEFE}
    .fil5 {fill:#F79633}
    .fil4 {fill:#EC268F}
    .fil3 {fill:#05A4E8}
    .fil1 {fill:black;fill-rule:nonzero}
    .fil2 {fill:#FF970A;fill-rule:nonzero}
   ]]>
  </style>
 </defs>
 <g id="Layer_x0020_1">
  <metadata id="CorelCorpID_0Corel-Layer"/>
  <circle class="fil0" cx="320.13" cy="320.13" r="320.13"/>
  <g id="_1511238995136">
   <path class="fil1" d="M100.7 219.88c0,-2.44 1.05,-4.89 3.14,-6.64 1.75,-1.75 3.84,-2.79 6.64,-2.79 2.44,0 4.89,1.05 6.64,2.79 1.75,1.74 2.79,4.19 2.79,6.64l0 200.15c0,2.79 -1.05,4.89 -2.79,6.64 -1.74,2.1 -4.19,2.79 -6.64,2.79 -2.79,0 -4.89,-0.7 -6.64,-2.79 -2.1,-1.75 -3.14,-3.84 -3.14,-6.64l0 -200.15zm9.78 -34.93c-10.83,0 -19.91,3.49 -27.25,11.18 -7.69,7.69 -11.53,16.76 -11.53,27.24l0 193.51c0,10.48 3.84,19.56 11.53,27.24 7.34,7.34 16.42,11.18 27.25,11.18 10.48,0 19.56,-3.84 27.24,-11.18 7.69,-7.69 11.18,-16.76 11.18,-27.24l0 -193.51c0,-10.48 -3.49,-19.56 -11.18,-27.24 -7.69,-7.69 -16.76,-11.18 -27.24,-11.18z"/>
   <path class="fil1" d="M186.17 250.27l0 -4.54 -28.64 0 0 205.74 28.99 0 0 -174.3c0,-2.44 1.05,-4.89 3.14,-6.64 1.75,-2.1 3.84,-2.79 6.64,-2.79 2.45,0 4.89,0.7 6.64,2.79 1.74,1.74 2.79,4.19 2.79,6.64l0 174.3 29.34 0 0 -174.3c0,-2.44 1.05,-4.89 2.79,-6.64 1.75,-2.1 4.19,-2.79 6.64,-2.79 2.8,0 4.89,0.7 6.64,2.79 2.1,1.74 3.14,4.19 3.14,6.64l0 174.3 28.99 0 0 -170.81c0,-25.85 -9.08,-38.77 -27.24,-38.77 -8.73,0 -15.37,2.45 -20.61,7.34 -2.45,2.44 -3.84,4.89 -4.54,7.33 -4.19,-9.78 -11.88,-14.67 -23.05,-14.67 -5.94,0 -11.53,1.4 -16.42,4.19 -1.4,1.05 -2.8,2.1 -3.84,3.15 -0.7,0.35 -1.05,0.35 -1.05,0.7l-0.35 0.35z"/>
   <polygon class="fil1" points="481.73,245.73 471.95,245.73 471.95,188.45 443.31,188.45 443.31,245.73 433.88,245.73 433.88,274.37 443.31,274.37 443.31,451.47 471.95,451.47 471.95,274.37 481.73,274.37 "/>
   <path class="fil2" d="M339.45 422.48c-0.35,1.4 -1.05,2.44 -1.75,3.49l-0.35 0.35 -0.7 0.7 -0.7 0.7 -0.7 0.35 -0.7 0.7 -1.05 0 -1.05 0.35 -0.35 0.35 -1.74 0c-2.79,0 -4.89,-0.7 -6.64,-2.79 -2.1,-1.75 -3.15,-3.84 -3.15,-6.64l0 -57.98c0,-2.1 0.35,-4.54 1.75,-7.69 2.09,-5.59 6.98,-10.48 13.97,-14.32l1.75 -1.05 1.74 -1.05 0 82.09c0,0.7 0,1.4 -0.35,2.45zm-9.08 -180.59c-10.83,0 -19.91,3.84 -27.25,11.18 -7.69,7.69 -11.53,16.77 -11.53,27.25l0 28.99 28.99 0 0 -32.14c0,-2.79 1.05,-4.89 3.15,-6.64 1.74,-2.1 3.84,-2.79 6.64,-2.79 2.44,0 4.89,0.7 6.64,2.79 1.75,1.74 2.79,3.84 2.79,6.64l0 27.25 -18.51 10.83c-3.84,2.1 -6.29,3.84 -7.69,4.54 -3.14,2.44 -6.29,4.89 -8.73,7.33 -6.99,6.64 -11.18,14.32 -12.58,22.7 -0.35,2.1 -0.7,3.84 -0.7,5.59l0 61.48c0,7.33 2.1,14.32 5.94,20.61 4.19,5.94 9.43,10.83 15.72,13.97 5.59,2.44 11.17,3.84 17.12,3.84 5.59,0 11.18,-1.4 16.42,-3.84l22.01 0 0 -171.16c0,-10.48 -3.49,-19.56 -11.18,-27.25 -7.69,-7.33 -16.76,-11.18 -27.24,-11.18z"/>
   <path class="fil2" d="M417.23 269.84c4.54,0 7.33,0.7 8.38,2.44l0 -28.29c-5.24,0.35 -10.13,1.75 -14.67,4.54 -1.4,0.7 -2.44,1.74 -3.84,2.44 -0.35,0.35 -0.7,0.7 -0.7,1.05 -0.35,0.35 -0.35,0.35 -0.35,0.35l0 -6.64 -28.64 0 0 205.74 28.99 0 0 -172.21c0,-2.79 1.4,-4.89 3.49,-6.64 2.1,-2.1 4.54,-2.79 7.33,-2.79z"/>
   <path class="fil3" d="M499.16 236.53c0,9.68 3.97,18.43 10.36,24.73 6.26,-6.17 14.86,-9.98 24.34,-9.98 9.48,0 18.08,3.81 24.34,9.98 6.39,-6.3 10.36,-15.05 10.36,-24.73 0,-19.16 -15.54,-34.7 -34.7,-34.7 -19.16,0 -34.7,15.54 -34.7,34.7z"/>
   <path class="fil4" d="M499.16 319.36c0,19.16 15.54,34.7 34.7,34.7 19.16,0 34.7,-15.54 34.7,-34.7 0,-19.16 -15.54,-34.7 -34.7,-34.7 -19.16,0 -34.7,15.54 -34.7,34.7z"/>
   <path class="fil5" d="M499.16 407.36c0,-9.68 3.97,-18.43 10.36,-24.73 6.26,6.17 14.86,9.98 24.34,9.98 9.48,0 18.08,-3.81 24.34,-9.98 6.39,6.3 10.36,15.05 10.36,24.73 0,19.16 -15.54,34.7 -34.7,34.7 -19.16,0 -34.7,-15.54 -34.7,-34.7z"/>
  </g>
 </g>
</svg>
