<?xml version="1.0" encoding="UTF-8"?>
<!DOCTYPE svg PUBLIC "-//W3C//DTD SVG 1.1//EN" "http://www.w3.org/Graphics/SVG/1.1/DTD/svg11.dtd">
<!-- Creator: CorelDRAW -->
<svg xmlns="http://www.w3.org/2000/svg" xml:space="preserve" width="2.16894in" height="1.18023in" version="1.1" style="shape-rendering:geometricPrecision; text-rendering:geometricPrecision; image-rendering:optimizeQuality; fill-rule:evenodd; clip-rule:evenodd"
viewBox="0 0 2163.34 1177.18"
 xmlns:xlink="http://www.w3.org/1999/xlink"
 xmlns:xodm="http://www.corel.com/coreldraw/odm/2003">
 <defs>
  <style type="text/css">
   <![CDATA[
    .fil4 {fill:#F79633}
    .fil3 {fill:#EC268F}
    .fil2 {fill:#05A4E8}
    .fil0 {fill:black;fill-rule:nonzero}
    .fil1 {fill:#FF970A;fill-rule:nonzero}
   ]]>
  </style>
 </defs>
 <g id="Layer_x0020_1">
  <metadata id="CorelCorpID_0Corel-Layer"/>
  <g id="_1511228157232">
   <path class="fil0" d="M126.23 152.09c0,-10.65 4.57,-21.29 13.69,-28.9 7.61,-7.61 16.73,-12.17 28.9,-12.17 10.65,0 21.3,4.56 28.9,12.17 7.61,7.61 12.17,18.25 12.17,28.9l0 871.48c0,12.17 -4.56,21.29 -12.17,28.89 -7.6,9.13 -18.25,12.17 -28.9,12.17 -12.17,0 -21.29,-3.04 -28.9,-12.17 -9.12,-7.6 -13.69,-16.73 -13.69,-28.89l0 -871.48zm42.59 -152.09c-47.15,0 -86.69,15.21 -118.63,48.67 -33.46,33.46 -50.19,73 -50.19,118.63l0 842.58c0,45.63 16.73,85.17 50.19,118.63 31.94,31.94 71.48,48.67 118.63,48.67 45.63,0 85.17,-16.73 118.63,-48.67 33.46,-33.46 48.67,-73 48.67,-118.63l0 -842.58c0,-45.63 -15.21,-85.17 -48.67,-118.63 -33.46,-33.46 -73,-48.67 -118.63,-48.67z"/>
   <path class="fil0" d="M498.35 284.41l0 -19.77 -124.71 0 0 895.81 126.24 0 0 -758.93c0,-10.65 4.56,-21.29 13.69,-28.9 7.6,-9.13 16.73,-12.17 28.89,-12.17 10.65,0 21.3,3.04 28.9,12.17 7.61,7.61 12.17,18.25 12.17,28.9l0 758.93 127.76 0 0 -758.93c0,-10.65 4.56,-21.29 12.17,-28.9 7.61,-9.13 18.25,-12.17 28.9,-12.17 12.17,0 21.3,3.04 28.9,12.17 9.13,7.61 13.69,18.25 13.69,28.9l0 758.93 126.24 0 0 -743.72c0,-112.55 -39.54,-168.82 -118.63,-168.82 -38.02,0 -66.92,10.65 -89.73,31.94 -10.65,10.65 -16.73,21.29 -19.77,31.94 -18.25,-42.59 -51.71,-63.88 -100.38,-63.88 -25.85,0 -50.19,6.09 -71.48,18.25 -6.08,4.56 -12.17,9.13 -16.73,13.69 -3.04,1.52 -4.56,1.52 -4.56,3.04l-1.52 1.52z"/>
   <polygon class="fil0" points="1785.28,264.64 1742.7,264.64 1742.7,15.21 1617.99,15.21 1617.99,264.64 1576.92,264.64 1576.92,389.35 1617.99,389.35 1617.99,1160.45 1742.7,1160.45 1742.7,389.35 1785.28,389.35 "/>
   <path class="fil1" d="M1165.77 1034.22c-1.52,6.08 -4.56,10.65 -7.61,15.21l-1.52 1.52 -3.04 3.04 -3.04 3.04 -3.04 1.52 -3.04 3.04 -4.56 0 -4.56 1.52 -1.52 1.52 -7.6 0c-12.17,0 -21.29,-3.04 -28.9,-12.17 -9.13,-7.6 -13.69,-16.73 -13.69,-28.89l0 -252.47c0,-9.13 1.52,-19.77 7.61,-33.46 9.13,-24.33 30.42,-45.63 60.83,-62.35l7.61 -4.57 7.6 -4.56 0 357.41c0,3.04 0,6.08 -1.52,10.65zm-39.54 -786.31c-47.15,0 -86.69,16.73 -118.63,48.67 -33.46,33.46 -50.19,73 -50.19,118.63l0 126.23 126.23 0 0 -139.92c0,-12.17 4.56,-21.29 13.69,-28.9 7.61,-9.13 16.73,-12.17 28.9,-12.17 10.65,0 21.29,3.04 28.9,12.17 7.61,7.61 12.17,16.73 12.17,28.9l0 118.63 -80.61 47.15c-16.73,9.13 -27.38,16.73 -33.46,19.77 -13.69,10.65 -27.38,21.3 -38.02,31.94 -30.42,28.9 -48.67,62.36 -54.75,98.86 -1.52,9.13 -3.04,16.73 -3.04,24.33l0 267.68c0,31.94 9.12,62.35 25.85,89.73 18.25,25.85 41.06,47.15 68.44,60.83 24.33,10.65 48.67,16.73 74.52,16.73 24.33,0 48.67,-6.09 71.48,-16.73l95.81 0 0 -745.24c0,-45.63 -15.21,-85.17 -48.67,-118.63 -33.46,-31.94 -73,-48.67 -118.63,-48.67z"/>
   <path class="fil1" d="M1504.42 369.58c19.77,0 31.94,3.04 36.5,10.65l0 -123.2c-22.81,1.52 -44.11,7.61 -63.87,19.77 -6.09,3.04 -10.65,7.61 -16.73,10.65 -1.52,1.52 -3.04,3.04 -3.04,4.56 -1.52,1.52 -1.52,1.52 -1.52,1.52l0 -28.9 -124.71 0 0 895.81 126.23 0 0 -749.81c0,-12.17 6.09,-21.29 15.21,-28.89 9.13,-9.13 19.77,-12.17 31.94,-12.17z"/>
   <path class="fil2" d="M1861.16 224.58c0,42.15 17.26,80.26 45.1,107.65 27.28,-26.85 64.7,-43.42 105.99,-43.42 41.29,0 78.71,16.58 105.99,43.42 27.83,-27.4 45.1,-65.51 45.1,-107.65 0,-83.45 -67.64,-151.09 -151.09,-151.09 -83.44,0 -151.09,67.64 -151.09,151.09z"/>
   <path class="fil3" d="M1861.16 585.2c0,83.44 67.64,151.09 151.09,151.09 83.44,0 151.09,-67.64 151.09,-151.09 0,-83.44 -67.65,-151.09 -151.09,-151.09 -83.44,0 -151.09,67.65 -151.09,151.09z"/>
   <path class="fil4" d="M1861.16 968.4c0,-42.14 17.26,-80.25 45.1,-107.66 27.28,26.85 64.7,43.43 105.99,43.43 41.29,0 78.71,-16.58 105.99,-43.43 27.83,27.41 45.1,65.52 45.1,107.66 0,83.44 -67.64,151.09 -151.09,151.09 -83.44,0 -151.09,-67.65 -151.09,-151.09z"/>
  </g>
 </g>
</svg>
